<svg xmlns="http://www.w3.org/2000/svg" fill="none" viewBox="0 0 638 362">
  <path fill="url(#a)" d="M80 17.0253C80 7.6225 87.6225 0 97.0253 0H541.475c9.402 0 17.025 7.6225 17.025 17.0253V344.09c0 9.403-7.623 17.025-17.025 17.025H97.0253C87.6225 361.115 80 353.493 80 344.09V17.0253Z"/>
  <path fill="url(#b)" fill-rule="evenodd" d="M541.225 1.7921H96.7753c-8.4131 0-15.2332 6.8201-15.2332 15.2332V344.09c0 8.413 6.8201 15.233 15.2332 15.233H541.225c8.413 0 15.233-6.82 15.233-15.233V17.0253c0-8.413-6.82-15.2332-15.233-15.2332ZM96.7753 0C87.3725 0 79.75 7.6225 79.75 17.0253V344.09c0 9.403 7.6225 17.025 17.0253 17.025H541.225c9.402 0 17.025-7.622 17.025-17.025V17.0253C558.25 7.6225 550.627 0 541.225 0H96.7753Z" clip-rule="evenodd"/>
  <path fill="#51CB9C" d="M364.699 281.816c0-3.713 3.011-6.723 6.726-6.723h19.336c3.714 0 6.725 3.01 6.725 6.723v19.331c0 3.714-3.011 6.724-6.725 6.724h-19.336c-3.715 0-6.726-3.01-6.726-6.724v-19.331Z"/>
  <path fill="#fff" d="m376.263 297.786-5.68-6.318 5.68-6.289h2.711l-5.704 6.289 5.704 6.318h-2.711Zm6.923-12.607h2.71l5.704 6.289-5.704 6.318h-2.71l5.704-6.318-5.704-6.289Z"/>
  <path fill="#1ABCFE" d="M258.066 103.499c0-3.7133 3.012-6.7236 6.726-6.7236h19.336c3.714 0 6.725 3.0103 6.725 6.7236v19.331c0 3.713-3.011 6.723-6.725 6.723h-19.336c-3.714 0-6.726-3.01-6.726-6.723v-19.331Z"/>
  <path fill="#fff" fill-rule="evenodd" d="m277.349 109.139-2.662-4.073H266.7v17.65h15.973v-13.577h-5.324Zm3.223 2.102h-4.36l-2.663-4.073h-4.747v13.447h11.77v-9.374Z" clip-rule="evenodd"/>
  <path fill="#FFC04A" d="M425.631 140.237c0-3.713 3.011-6.723 6.725-6.723h19.336c3.715 0 6.726 3.01 6.726 6.723v19.331c0 3.713-3.011 6.724-6.726 6.724h-19.336c-3.714 0-6.725-3.011-6.725-6.724v-19.331Z"/>
  <path fill="#1C1E53" d="M434.039 149.055c1.36-.254 2.04-.953 2.04-2.1 0-.507-.066-1.373-.2-2.599-.133-1.307-.2-2.253-.2-2.84 0-.96.267-1.693.8-2.2.547-.506 1.274-.759 2.18-.759h1.161v1.579h-.821c-.52 0-.906.12-1.16.36-.253.227-.38.607-.38 1.14 0 .387.027.867.08 1.44.054.56.087.94.1 1.14.134 1.279.2 2.212.2 2.799 0 .707-.18 1.3-.54 1.78-.346.466-.886.78-1.62.94v.04c.734.16 1.274.479 1.62.959.36.48.54 1.073.54 1.78 0 .587-.066 1.52-.2 2.8-.013.199-.046.586-.1 1.159-.053.56-.08 1.033-.08 1.42 0 .533.127.913.38 1.14.254.24.64.36 1.16.36h.821v1.579h-1.161c-.906 0-1.633-.253-2.18-.759-.533-.507-.8-1.24-.8-2.2 0-.587.067-1.533.2-2.839.134-1.227.2-2.093.2-2.6 0-1.146-.68-1.846-2.04-2.1v-1.419Zm16.216 1.419c-1.36.254-2.04.954-2.04 2.1 0 .507.067 1.373.2 2.6.133 1.306.2 2.252.2 2.839 0 .96-.273 1.693-.82 2.2-.533.506-1.254.759-2.16.759h-1.16v-1.579h.82c.52 0 .906-.12 1.16-.36.253-.227.38-.607.38-1.14 0-.387-.027-.86-.08-1.42-.054-.573-.087-.96-.1-1.159-.134-1.28-.2-2.213-.2-2.8 0-.707.173-1.3.52-1.78.36-.48.907-.799 1.64-.959v-.04c-.733-.16-1.28-.474-1.64-.94-.347-.48-.52-1.073-.52-1.78 0-.586.066-1.52.2-2.799.013-.2.046-.58.1-1.14.053-.573.08-1.053.08-1.44 0-.533-.127-.913-.38-1.14-.254-.24-.64-.36-1.16-.36h-.82v-1.579h1.16c.906 0 1.627.253 2.16.759.547.507.82 1.24.82 2.2 0 .587-.067 1.533-.2 2.84-.133 1.226-.2 2.092-.2 2.599 0 1.147.68 1.846 2.04 2.1v1.419Z"/>
  <path fill="url(#c)" d="M0 101.256c0-5.9389 4.8142-10.7531 10.7528-10.7531H182.798c5.938 0 10.753 4.8142 10.753 10.7531v111.112c0 5.939-4.815 10.753-10.753 10.753H10.7528C4.8142 223.121 0 218.307 0 212.368V101.256Z"/>
  <path fill="url(#d)" fill-rule="evenodd" d="M182.798 92.2951H10.7528c-4.9488 0-8.9607 4.0118-8.9607 8.9609v111.112c0 4.949 4.0119 8.961 8.9607 8.961H182.798c4.949 0 8.96-4.012 8.96-8.961V101.256c0-4.9491-4.011-8.9609-8.96-8.9609ZM10.7528 90.5029C4.8142 90.5029 0 95.3171 0 101.256v111.112c0 5.939 4.8142 10.753 10.7528 10.753H182.798c5.938 0 10.753-4.814 10.753-10.753V101.256c0-5.9389-4.815-10.7531-10.753-10.7531H10.7528Z" clip-rule="evenodd"/>
  <path fill="#fff" fill-opacity=".17" d="M21.5059 125.45c0-2.97 2.4071-5.377 5.3764-5.377H77.062c2.9693 0 5.3764 2.407 5.3764 5.377v57.348c0 2.969-2.4071 5.376-5.3764 5.376H26.8823c-2.9693 0-5.3764-2.407-5.3764-5.376V125.45Z"/>
  <path fill="#fff" fill-opacity=".6" d="M94.0859 125.002c0-2.722 2.2065-4.929 4.9284-4.929h63.6207c2.722 0 4.928 2.207 4.928 4.929 0 2.721-2.206 4.928-4.928 4.928H99.0143c-2.7219 0-4.9284-2.207-4.9284-4.928Z"/>
  <path fill="#fff" fill-opacity=".26" d="M94.0859 143.819c0-2.722 2.2065-4.928 4.9284-4.928h63.6207c2.722 0 4.928 2.206 4.928 4.928s-2.206 4.928-4.928 4.928H99.0143c-2.7219 0-4.9284-2.206-4.9284-4.928Z"/>
  <path fill="#767799" d="M94.0859 175.181c0-9.156 7.4221-16.577 16.5771-16.577h.896c9.156 0 16.577 7.421 16.577 16.577 0 9.155-7.421 16.577-16.577 16.577h-.896c-9.155 0-16.5771-7.422-16.5771-16.577Z"/>
  <path fill="url(#e)" d="M90.5039 33.6028c0-10.1452 8.2243-18.3694 18.3691-18.3694H521.96c10.145 0 18.37 8.2242 18.37 18.3694 0 10.1451-8.225 18.3694-18.37 18.3694H108.873c-10.1449 0-18.3691-8.2243-18.3691-18.3694Z"/>
  <path fill="url(#f)" d="M465.955 199.823c0-5.938 4.814-10.753 10.753-10.753h150.539c5.939 0 10.753 4.815 10.753 10.753v111.112c0 5.939-4.814 10.753-10.753 10.753H476.708c-5.939 0-10.753-4.814-10.753-10.753V199.823Z"/>
  <path fill="url(#g)" fill-rule="evenodd" d="M627.247 190.862H476.708c-4.949 0-8.961 4.012-8.961 8.961v111.112c0 4.949 4.012 8.961 8.961 8.961h150.539c4.949 0 8.961-4.012 8.961-8.961V199.823c0-4.949-4.012-8.961-8.961-8.961Zm-150.539-1.792c-5.939 0-10.753 4.815-10.753 10.753v111.112c0 5.939 4.814 10.753 10.753 10.753h150.539c5.939 0 10.753-4.814 10.753-10.753V199.823c0-5.938-4.814-10.753-10.753-10.753H476.708Z" clip-rule="evenodd"/>
  <path fill="url(#h)" d="M481.885 210.575c0-1.979 1.604-3.584 3.584-3.584h133.016c1.98 0 3.585 1.605 3.585 3.584 0 1.98-1.605 3.585-3.585 3.585H485.469c-1.98 0-3.584-1.605-3.584-3.585Z"/>
  <path fill="url(#i)" d="M481.885 228.497c0-1.979 1.604-3.584 3.584-3.584h43.011c1.98 0 3.585 1.605 3.585 3.584 0 1.98-1.605 3.585-3.585 3.585h-43.011c-1.98 0-3.584-1.605-3.584-3.585Z"/>
  <path fill="url(#j)" d="M538.437 228.497c0-1.979 1.604-3.584 3.584-3.584h16.726c1.98 0 3.585 1.605 3.585 3.584 0 1.98-1.605 3.585-3.585 3.585h-16.726c-1.98 0-3.584-1.605-3.584-3.585Z"/>
  <path fill="url(#k)" d="M481.885 300.183c0-1.98 1.604-3.584 3.584-3.584h43.011c1.98 0 3.585 1.604 3.585 3.584 0 1.979-1.605 3.584-3.585 3.584h-43.011c-1.98 0-3.584-1.605-3.584-3.584Z"/>
  <path fill="url(#l)" d="M538.437 300.183c0-1.98 1.604-3.584 3.584-3.584h16.726c1.98 0 3.585 1.604 3.585 3.584 0 1.979-1.605 3.584-3.585 3.584h-16.726c-1.98 0-3.584-1.605-3.584-3.584Z"/>
  <path fill="url(#m)" d="M510.56 264.34c0-1.979 1.604-3.584 3.584-3.584h11.947c1.98 0 3.585 1.605 3.585 3.584 0 1.98-1.605 3.584-3.585 3.584h-11.947c-1.98 0-3.584-1.604-3.584-3.584Z"/>
  <path fill="url(#n)" d="M536.845 264.34c0-1.979 1.604-3.584 3.584-3.584h50.976c1.98 0 3.585 1.605 3.585 3.584 0 1.98-1.605 3.584-3.585 3.584h-50.976c-1.98 0-3.584-1.604-3.584-3.584Z"/>
  <path fill="url(#o)" d="M481.885 264.34c0-1.979 1.604-3.584 3.584-3.584h16.727c1.979 0 3.584 1.605 3.584 3.584 0 1.98-1.605 3.584-3.584 3.584h-16.727c-1.98 0-3.584-1.604-3.584-3.584Z"/>
  <path fill="url(#p)" d="M481.885 246.418c0-1.979 1.604-3.584 3.584-3.584h58.145c1.979 0 3.584 1.605 3.584 3.584 0 1.98-1.605 3.585-3.584 3.585h-58.145c-1.98 0-3.584-1.605-3.584-3.585Z"/>
  <path fill="url(#q)" d="M552.774 246.418c0-1.979 1.605-3.584 3.585-3.584h27.081c1.979 0 3.584 1.605 3.584 3.584 0 1.98-1.605 3.585-3.584 3.585h-27.081c-1.98 0-3.585-1.605-3.585-3.585Z"/>
  <path fill="url(#r)" d="M481.885 282.261c0-1.98 1.604-3.584 3.584-3.584h58.145c1.979 0 3.584 1.604 3.584 3.584s-1.605 3.584-3.584 3.584h-58.145c-1.98 0-3.584-1.604-3.584-3.584Z"/>
  <path fill="#FED280" d="M123.343 33.8045c0 3.3934-2.752 6.1443-6.146 6.1443-3.395 0-6.146-2.7509-6.146-6.1443s2.751-6.1443 6.146-6.1443c3.394 0 6.146 2.7509 6.146 6.1443Z"/>
  <path fill="#8CFEE3" fill-opacity=".9" d="M144.855 33.8045c0 3.3934-2.752 6.1443-6.146 6.1443-3.395 0-6.147-2.7509-6.147-6.1443s2.752-6.1443 6.147-6.1443c3.394 0 6.146 2.7509 6.146 6.1443Z"/>
  <path fill="#FF8DA9" fill-opacity=".9" d="M166.368 33.8045c0 3.3934-2.751 6.1443-6.146 6.1443-3.394 0-6.146-2.7509-6.146-6.1443s2.752-6.1443 6.146-6.1443c3.395 0 6.146 2.7509 6.146 6.1443Z"/>
  <path fill="#fff" d="M48.195 152.971c-1.6896-2.204-5.056-2.057-6.5481.285l-11.849 18.601c-1.6962 2.663.2165 6.149 3.3737 6.149h37.7388c3.266 0 5.1554-3.703 3.239-6.347l-6.6914-9.234c-1.481-2.044-4.4617-2.222-6.1755-.369l-.1248.135c-1.684 1.821-4.6021 1.686-6.1111-.282l-6.8516-8.938Z"/>
  <path fill="#C4C5DC" d="M71.479 140.027c0 3.216-2.6077 5.824-5.8245 5.824-3.2167 0-5.8244-2.608-5.8244-5.824 0-3.217 2.6077-5.825 5.8244-5.825 3.2168 0 5.8245 2.608 5.8245 5.825Z"/>
  <path fill="url(#s)" fill-rule="evenodd" d="M192.43 153.228c0-.619.501-1.121 1.12-1.121h133.53v26.379c0 .619-.502 1.12-1.12 1.12-.619 0-1.12-.501-1.12-1.12v-24.138H193.55c-.619 0-1.12-.502-1.12-1.12Z" clip-rule="evenodd"/>
  <path fill="url(#t)" fill-rule="evenodd" d="M467.075 255.379c0 .619-.501 1.12-1.12 1.12H325.256v-25.378c0-.619.502-1.121 1.12-1.121.619 0 1.121.502 1.121 1.121v23.138h138.458c.619 0 1.12.501 1.12 1.12Z" clip-rule="evenodd"/>
  <g filter="url(#u)">
    <path fill="#88F1DB" fill-rule="evenodd" d="M324.056 199.554c-.006.217.033.321.231.321h4.773c.864.064 1.637.28 2.291.7.454.291.786.638 1.036 1.022.443.681.694 1.664.83 2.458.058.343.085.664.023.812-.03.071-.074.118-.133.14-.328.125-.675-.303-.86-.508-.88-.975-2.159-1.378-3.668-1.454h-4.363c-.156.026-.212.135-.196.304v1.163c-.009.387-.215.519-.623.388l-3.757-2.792-.37-.274-.094-.07c-.302-.258-.178-.492.093-.694l.287-.214 3.6-2.683c.439-.328.9-.415.9.291v1.09Zm4.18 11.873c.006-.216-.033-.32-.231-.32h-4.773c-.864-.064-1.637-.28-2.291-.7-.457-.294-.79-.642-1.04-1.029-.453-.7-.748-1.839-.857-2.657-.034-.261-.042-.488.008-.607.03-.07.074-.117.133-.14.328-.124.675.304.86.508.88.975 2.16 1.379 3.668 1.454h4.363c.156-.025.212-.135.196-.303v-1.164c.009-.387.215-.518.623-.388l3.757 2.792.37.275.094.07c.302.257.178.491-.093.694l-.287.213-3.599 2.684c-.44.327-.9.415-.9-.291l-.001-1.091Z" clip-rule="evenodd"/>
  </g>
  <circle cx="326" cy="205" r="19" stroke="#fff" stroke-width="2"/>
  <path fill="#383A68" d="M248.211 153.227c0 4.949-4.011 8.961-8.96 8.961-4.949 0-8.961-4.012-8.961-8.961 0-4.949 4.012-8.96 8.961-8.96 4.949 0 8.96 4.011 8.96 8.96Z"/>
  <path fill="#63648A" fill-rule="evenodd" d="M239.251 160.396c3.959 0 7.168-3.21 7.168-7.169 0-3.959-3.209-7.168-7.168-7.168s-7.169 3.209-7.169 7.168 3.21 7.169 7.169 7.169Zm0 1.792c4.949 0 8.96-4.012 8.96-8.961 0-4.949-4.011-8.96-8.96-8.96-4.949 0-8.961 4.011-8.961 8.96 0 4.949 4.012 8.961 8.961 8.961Z" clip-rule="evenodd"/>
  <path fill="#383A68" d="M443.552 255.38c0 4.948-4.012 8.96-8.96 8.96-4.949 0-8.961-4.012-8.961-8.96 0-4.949 4.012-8.961 8.961-8.961 4.948 0 8.96 4.012 8.96 8.961Z"/>
  <path fill="#63648A" fill-rule="evenodd" d="M434.592 262.548c3.959 0 7.168-3.209 7.168-7.168s-3.209-7.169-7.168-7.169c-3.96 0-7.169 3.21-7.169 7.169 0 3.959 3.209 7.168 7.169 7.168Zm0 1.792c4.948 0 8.96-4.012 8.96-8.96 0-4.949-4.012-8.961-8.96-8.961-4.949 0-8.961 4.012-8.961 8.961 0 4.948 4.012 8.96 8.961 8.96Z" clip-rule="evenodd"/>
  <path fill="#767799" d="M134.41 165.327c0-3.713 3.011-6.723 6.726-6.723h19.336c3.714 0 6.725 3.01 6.725 6.723v19.331c0 3.713-3.011 6.724-6.725 6.724h-19.336c-3.715 0-6.726-3.011-6.726-6.724v-19.331Z"/>
  <path fill="#fff" fill-rule="evenodd" d="M154.065 184.393h-6.058v-2.521h6.058v2.521Zm-11.669-16.964h16.814v4.056h-2.522v-1.535h-11.769v1.535h-2.523v-4.056Z" clip-rule="evenodd"/>
  <path fill="#fff" fill-rule="evenodd" d="m149.699 183.274.155-14.443 2.522.027-.156 14.443-2.521-.027Z" clip-rule="evenodd"/>
  <defs>
    <linearGradient id="a" x1="319.25" x2="442.61" y1="0" y2="524.825" gradientUnits="userSpaceOnUse">
      <stop stop-color="#fff" stop-opacity=".16"/>
      <stop offset="1" stop-color="#C4C4C4" stop-opacity="0"/>
    </linearGradient>
    <linearGradient id="b" x1="319" x2="657.888" y1="0" y2="244.481" gradientUnits="userSpaceOnUse">
      <stop stop-color="#fff" stop-opacity=".17"/>
      <stop offset="1" stop-opacity="0"/>
    </linearGradient>
    <linearGradient id="c" x1="41.8266" x2="278.936" y1="126.113" y2="434.827" gradientUnits="userSpaceOnUse">
      <stop stop-color="#40416E"/>
      <stop offset="1" stop-color="#5A5B8B"/>
    </linearGradient>
    <linearGradient id="d" x1="96.7753" x2="179.171" y1="90.5029" y2="427.829" gradientUnits="userSpaceOnUse">
      <stop stop-color="#fff" stop-opacity=".17"/>
      <stop offset="1" stop-opacity="0"/>
    </linearGradient>
    <linearGradient id="e" x1="315.417" x2="383.39" y1="15.2334" y2="224.788" gradientUnits="userSpaceOnUse">
      <stop stop-color="#fff" stop-opacity=".15"/>
      <stop offset="1" stop-color="#C4C4C4" stop-opacity="0"/>
    </linearGradient>
    <linearGradient id="f" x1="797.652" x2="326.286" y1="535.76" y2="107.827" gradientUnits="userSpaceOnUse">
      <stop stop-color="#40416E"/>
      <stop offset="1" stop-color="#5A5B8B"/>
    </linearGradient>
    <linearGradient id="g" x1="551.978" x2="643.306" y1="189.07" y2="521.426" gradientUnits="userSpaceOnUse">
      <stop stop-color="#fff" stop-opacity=".17"/>
      <stop offset="1" stop-opacity="0"/>
    </linearGradient>
    <linearGradient id="h" x1="551.977" x2="560.791" y1="206.991" y2="250.392" gradientUnits="userSpaceOnUse">
      <stop stop-color="#fff" stop-opacity=".56"/>
      <stop offset="1" stop-color="#C4C4C4" stop-opacity="0"/>
    </linearGradient>
    <linearGradient id="i" x1="506.975" x2="526.371" y1="224.913" y2="259.099" gradientUnits="userSpaceOnUse">
      <stop stop-color="#F9C746" stop-opacity=".52"/>
      <stop offset="1" stop-color="#C4C4C4" stop-opacity="0"/>
    </linearGradient>
    <linearGradient id="j" x1="550.384" x2="572.637" y1="224.913" y2="243.59" gradientUnits="userSpaceOnUse">
      <stop stop-color="#84EBE5" stop-opacity=".62"/>
      <stop offset="1" stop-color="#C4C4C4" stop-opacity="0"/>
    </linearGradient>
    <linearGradient id="k" x1="506.975" x2="526.371" y1="296.599" y2="330.785" gradientUnits="userSpaceOnUse">
      <stop stop-color="#fff" stop-opacity=".56"/>
      <stop offset="1" stop-color="#C4C4C4" stop-opacity="0"/>
    </linearGradient>
    <linearGradient id="l" x1="550.384" x2="572.637" y1="296.599" y2="315.276" gradientUnits="userSpaceOnUse">
      <stop stop-color="#F47D9E"/>
      <stop offset="1" stop-color="#C4C4C4" stop-opacity="0"/>
    </linearGradient>
    <linearGradient id="m" x1="520.118" x2="541.032" y1="260.756" y2="274.799" gradientUnits="userSpaceOnUse">
      <stop stop-color="#F2C87D"/>
      <stop offset="1" stop-color="#C4C4C4" stop-opacity="0"/>
    </linearGradient>
    <linearGradient id="n" x1="565.917" x2="583.765" y1="260.756" y2="297.207" gradientUnits="userSpaceOnUse">
      <stop stop-color="#fff" stop-opacity=".62"/>
      <stop offset="1" stop-color="#C4C4C4" stop-opacity="0"/>
    </linearGradient>
    <linearGradient id="o" x1="488.257" x2="524.934" y1="258.964" y2="264.143" gradientUnits="userSpaceOnUse">
      <stop stop-color="#F37D9D"/>
      <stop offset="1" stop-color="#C4C4C4" stop-opacity="0"/>
    </linearGradient>
    <linearGradient id="p" x1="514.541" x2="531.095" y1="242.834" y2="280.809" gradientUnits="userSpaceOnUse">
      <stop stop-color="#fff" stop-opacity=".58"/>
      <stop offset="1" stop-color="#C4C4C4" stop-opacity="0"/>
    </linearGradient>
    <linearGradient id="q" x1="569.899" x2="592.114" y1="242.834" y2="269.559" gradientUnits="userSpaceOnUse">
      <stop stop-color="#fff" stop-opacity=".45"/>
      <stop offset="1" stop-color="#C4C4C4" stop-opacity="0"/>
    </linearGradient>
    <linearGradient id="r" x1="514.541" x2="531.095" y1="278.677" y2="316.652" gradientUnits="userSpaceOnUse">
      <stop stop-color="#70D1E7"/>
      <stop offset="1" stop-color="#C4C4C4" stop-opacity="0"/>
    </linearGradient>
    <linearGradient id="s" x1="314.831" x2="135.117" y1="147.041" y2="201.28" gradientUnits="userSpaceOnUse">
      <stop stop-color="#767799"/>
      <stop offset="1" stop-color="#767799" stop-opacity="0"/>
    </linearGradient>
    <linearGradient id="t" x1="338.205" x2="525.789" y1="261.565" y2="201.931" gradientUnits="userSpaceOnUse">
      <stop stop-color="#767799"/>
      <stop offset="1" stop-color="#767799" stop-opacity="0"/>
    </linearGradient>
    <filter id="u" width="42.292" height="43.1282" x="305" y="187.927" color-interpolation-filters="sRGB" filterUnits="userSpaceOnUse">
      <feFlood flood-opacity="0" result="BackgroundImageFix"/>
      <feColorMatrix in="SourceAlpha" result="hardAlpha" values="0 0 0 0 0 0 0 0 0 0 0 0 0 0 0 0 0 0 127 0"/>
      <feOffset dy="4"/>
      <feGaussianBlur stdDeviation="7"/>
      <feComposite in2="hardAlpha" operator="out"/>
      <feColorMatrix values="0 0 0 0 0.533333 0 0 0 0 0.945098 0 0 0 0 0.858824 0 0 0 1 0"/>
      <feBlend in2="BackgroundImageFix" result="effect1_dropShadow_1502_2911"/>
      <feBlend in="SourceGraphic" in2="effect1_dropShadow_1502_2911" result="shape"/>
    </filter>
  </defs>
</svg>