<svg xmlns="http://www.w3.org/2000/svg" fill="none" viewBox="0 0 122 25">
  <g fill="#fff" clip-path="url(#a)">
    <path d="M121.78 18.87v3.02h-2.53c-2.7-.08-4.14-1.54-4.14-4.28v-6.9h-1.77V8.06h1.77V5.1h3.73v2.93h2.86v2.64h-2.86v6.56c0 .9.18 1.6 1.55 1.6l1.4.04ZM98.44 15v-.2a6.76 6.76 0 0 1 6.46-7.06h.54c3.53 0 6.63 2.06 6.63 6.95v1.05h-9.8c.1 2.25 1.31 3.53 3.37 3.53 1.77 0 2.6-.78 2.83-1.9H112c-.43 2.94-2.78 4.57-6.5 4.57-4.07-.03-7.06-2.6-7.06-6.94Zm9.95-1.63c-.13-2.05-1.16-3.04-2.96-3.04s-2.83 1.11-3.09 3.04h6.05ZM83.18 15v-.2a6.76 6.76 0 0 1 6.45-7.06h.54c3.53 0 6.63 2.06 6.63 6.95v1.05H87c.1 2.25 1.33 3.53 3.38 3.53 1.77 0 2.6-.78 2.83-1.9h3.53c-.44 2.94-2.78 4.57-6.5 4.57-4.07-.03-7.06-2.6-7.06-6.94Zm9.96-1.63c-.13-2.05-1.17-3.04-2.97-3.04-1.8 0-2.8 1.14-3.09 3.04h6.06ZM61.77 8.03h3.96l2.41 9.16 2.65-9.16h3.09l2.4 9.16 2.54-9.16h3.62l-4.29 13.6h-3.7l-2.32-8.53-2.48 8.54H65.9L61.77 8.03ZM49.2 17.36h3.54c.16 1.23.77 1.93 2.4 1.93 1.44 0 2.11-.55 2.11-1.48 0-.94-.77-1.33-2.74-1.61-3.63-.55-5.02-1.6-5.02-4.25 0-2.83 2.6-4.24 5.4-4.24 3.02 0 5.3 1.1 5.62 4.23h-3.48a1.84 1.84 0 0 0-2.01-1.66h-.12c-1.22 0-1.93.57-1.93 1.4 0 .84.66 1.2 2.65 1.49 3.38.5 5.27 1.36 5.27 4.27 0 2.91-2.14 4.47-5.72 4.47-3.58 0-5.86-1.61-5.96-4.55ZM34.21 8.03h3.74v2.15a4.68 4.68 0 0 1 4.41-2.47c2.65 0 4.57 1.62 4.57 5.3v8.66h-3.69v-8.12c0-1.84-.72-2.72-2.39-2.72a2.69 2.69 0 0 0-2.9 2.95v7.86H34.2V8.03ZM27 4.61a1.88 1.88 0 1 1 1.95 1.81h-.07A1.76 1.76 0 0 1 27 4.61Zm0 3.42h3.78v13.6h-3.76L27 8.04ZM12.77 3.04h11.94v3.3h-7.72v4.92h6.11v3.17h-6.12v7.2h-4.2V3.05Zm-7.2 6.09c0 1.16 0 2.58-1.6 3.16 1.64.57 1.6 1.76 1.6 3.01v4.64c0 .88.35 1.41.99 1.54.13.05.28.07.43.06h1.54v3.1H5.98c-2.71 0-4.21-1.55-4.21-4.42v-5.48a1.13 1.13 0 0 0-1.1-1.05H0v-2.71h.66a1.12 1.12 0 0 0 1.1-1.08V4.34C1.77 1.52 3.25 0 5.99 0h2.58v3.04H7c-.15 0-.3.03-.43.07-.63.16-.99.69-.99 1.55l-.02 4.47Z"/>
  </g>
  <defs>
    <clipPath id="a">
      <path fill="#fff" d="M0 0h122v24.71H0z"/>
    </clipPath>
  </defs>
</svg>